<?xml version="1.0" encoding="UTF-8" standalone="no"?>
<!DOCTYPE svg PUBLIC "-//W3C//DTD SVG 1.1//EN" "http://www.w3.org/Graphics/SVG/1.1/DTD/svg11.dtd">
<svg width="100%" height="100%" viewBox="0 0 1200 1200" version="1.1" xmlns="http://www.w3.org/2000/svg" xmlns:xlink="http://www.w3.org/1999/xlink" xml:space="preserve" xmlns:serif="http://www.serif.com/" style="fill-rule:evenodd;clip-rule:evenodd;stroke-linejoin:round;stroke-miterlimit:2;">
    <g transform="matrix(1.204819,0,0,1.204819,-165.060241,-144.578313)">
        <path d="M521.759,374.016C521.759,374.016 463.2,373.955 436.924,373.928C433.612,373.924 430.435,375.239 428.093,377.582C425.752,379.924 424.439,383.103 424.444,386.415C424.474,405.366 424.531,441.159 424.56,460.07C424.571,466.938 430.142,472.5 437.01,472.5C463.988,472.5 606.5,472.5 606.5,472.5L606.759,423.25L607.019,374L521.759,374.016ZM436.417,485.511C436.417,485.511 436.17,617.874 436.092,659.663C436.086,662.971 437.397,666.145 439.734,668.485C442.072,670.825 445.245,672.139 448.553,672.136C487.943,672.102 607.01,672 607.01,672L606.5,485.67" style="fill:rgb(21,21,21);"/>
    </g>
    <g transform="matrix(1.204819,0,0,1.204819,-164.060241,-135.578313)">
        <path d="M191,707.762C191,708.257 192.105,709.253 193.455,709.976C194.805,710.698 196.717,712.912 197.705,714.895C199.38,718.259 199.5,723.148 199.5,788C199.5,852.615 199.376,857.728 197.729,860.741C196.755,862.523 194.793,864.745 193.369,865.678L190.78,867.374L193.14,868.255C195.542,869.152 228.989,868.914 228.996,868C228.998,867.725 227.458,866.27 225.574,864.767C220.545,860.754 219.916,856.127 220.232,825.5L220.5,799.5L223.933,799.173C225.821,798.993 228.868,799.128 230.703,799.472C233.73,800.04 235.266,801.935 247.184,819.799C254.412,830.635 263.049,843.1 266.378,847.5C293.364,883.175 333.24,902.319 379.619,901.864C393.325,901.729 393.393,901.717 385,900.935C350.546,897.722 329.189,888.259 307.413,866.556C296.903,856.081 288.208,844.749 271.149,819.293C264.438,809.279 258.509,800.815 257.974,800.484C255.923,799.216 257.203,798.358 262.905,797.181C277.469,794.172 290.225,784.342 296.81,771.053C300.368,763.873 300.499,763.227 300.476,753.053C300.456,744.372 300.038,741.463 298.119,736.656C293.315,724.623 282.852,715.322 268.5,710.326L260.5,707.541L225.75,707.201C205.562,707.004 191,707.239 191,707.762M677,707.839C677,708.301 678.054,709.159 679.342,709.746C680.63,710.333 682.542,712.542 683.592,714.656C685.402,718.302 685.515,721.89 685.791,784.304C685.975,825.997 685.707,852.196 685.061,855.804C684.225,860.467 683.371,862.09 680.353,864.75C678.326,866.538 676.854,868.06 677.083,868.134C677.313,868.208 685.487,868.375 695.25,868.505C707.948,868.674 713,868.418 713,867.608C713,866.984 711.989,866.03 710.754,865.487C705.428,863.146 705.521,864.547 705.232,782.75L704.963,707L690.982,707C683.292,707 677,707.378 677,707.839M220,752.908L220,795L224.25,795.092C234.639,795.317 246.747,794.991 249.5,794.414C254.87,793.288 264.054,787.746 268.024,783.235C283.011,766.21 282.42,737.29 266.766,721.636C258.645,713.515 253.093,711.707 234.75,711.214L220,710.817L220,752.908M526.123,750.108C524.266,750.666 520.325,753.545 517.365,756.505L511.983,761.886L506.242,759.878C502.994,758.742 496.591,757.637 491.5,757.335C475.404,756.38 461.802,760.758 451.439,770.23C439.22,781.398 436.279,796.759 443.519,811.609C445.812,816.315 453.723,824.902 458.5,827.872C459.656,828.591 460.037,829.316 459.403,829.59C458.8,829.851 456.47,831.415 454.227,833.065C447.048,838.344 444.063,848.429 447.351,856.298C448.689,859.501 455.176,866 457.035,866C459.451,866 457.605,867.879 453.738,869.356C439.694,874.72 433.423,889.514 440.253,901.169C445.073,909.394 454.212,914.989 469.59,919.13C480.769,922.141 503.049,922.143 514.314,919.135C524.931,916.301 533.156,911.703 538.947,905.368C544.736,899.033 547.008,893.01 546.978,884.072C546.928,869.006 536.877,859.162 517.785,855.48C513.778,854.708 501.436,853.642 490.358,853.112C473.481,852.305 469.419,851.806 465.299,850.033C456.86,846.403 454.618,838.526 460.462,833.036L462.893,830.752L470.765,832.876C480.277,835.443 493.902,835.698 502.458,833.469C515.374,830.105 525.793,822.046 531.661,810.883C534.193,806.067 534.49,804.5 534.484,796C534.479,788.201 534.059,785.571 532.141,781.309C529.948,776.438 520.563,766.162 516.998,764.73C515.781,764.242 515.943,763.741 517.861,762.064C521.08,759.249 526.065,759.425 530.618,762.516C534.719,765.298 537.399,765.1 540.25,761.802C542.633,759.046 542.448,755.616 539.75,752.574C537.13,749.619 531.276,748.559 526.123,750.108M356.645,760.584C347.121,762.89 337.786,768.423 330.636,776.003C320.23,787.034 315.683,799.288 315.793,816C315.899,831.974 321.456,844.652 333.064,855.399C343.761,865.302 356.712,870 373.316,870C389.949,870 401.444,865.786 412.693,855.563C418.46,850.323 420.955,846.622 419.622,845.289C419.314,844.98 416.367,847.222 413.074,850.271C405.823,856.984 398.615,860.549 389.126,862.116C374.945,864.458 360.885,860.009 350.861,850.008C341.335,840.504 335.573,825.817 336.205,812.65L336.5,806.5L420.5,806.254L420.229,801.224C419.431,786.383 409.185,771.11 395.621,764.541C384.342,759.079 369.209,757.543 356.645,760.584M598.58,760.057C590.752,761.265 581.133,765.867 576.267,770.733C573.176,773.824 572.306,775.476 572.194,778.468C571.971,784.403 572.99,784.594 576.074,779.195C579.966,772.38 585.215,768.321 593.346,765.838C605.046,762.264 615.23,764.778 622.242,772.97C627.14,778.692 629,785.298 629,796.977L629,806.723L612.25,807.277C594.594,807.86 587.868,809.099 578.07,813.574C570.413,817.071 564.917,821.903 561.508,828.136C559.015,832.692 558.567,834.63 558.536,841C558.505,847.49 558.901,849.224 561.479,853.879C565.281,860.744 571.528,865.495 580.223,868.136C585.861,869.849 588.926,870.144 597.297,869.781C609.186,869.265 616.471,867.004 624.252,861.415C627.086,859.379 629.54,858.115 629.706,858.606C629.872,859.098 630.916,860.99 632.026,862.81C634.551,866.952 639.855,869.266 647,869.342C652.419,869.4 660,867.526 660,866.129C660,865.736 658.574,864.983 656.831,864.457C655.089,863.931 652.726,862.231 651.581,860.679C649.594,857.986 649.476,856.293 648.963,823.179C648.454,790.25 648.313,788.215 646.18,782.853C643.507,776.134 637.619,769.139 631.735,765.69C623.138,760.652 609.617,758.355 598.58,760.057M774.82,761.154C747.194,764.552 727.972,787.06 728.012,815.96C728.045,839.563 740.475,857.779 762.5,866.503C775.839,871.786 798.109,870.976 810.5,864.757C816.754,861.618 823.681,856.226 827.593,851.452C832.873,845.008 830.834,843.921 824.574,849.842C810.106,863.525 789.109,866.728 771.795,857.895C766.17,855.026 757.743,846.402 754.715,840.416C750.603,832.289 748,822.395 748,814.895L748,808L831,808L830.988,804.25C830.973,799.45 828.795,791.273 825.985,785.47C820.313,773.752 805.016,762.889 792.287,761.54C789.104,761.202 785.375,760.792 784,760.629C782.625,760.466 778.494,760.702 774.82,761.154M476.493,763.351C467.667,767.461 462.247,775.609 459.964,788.198C457.834,799.947 461.353,814.712 468.117,822.395C475.372,830.638 484.378,833.485 494.18,830.636C501.523,828.501 507.195,823.38 511.18,815.287C514.041,809.474 514.491,807.454 514.836,798.884C515.526,781.687 510.075,769.517 499.118,763.793C492.092,760.122 483.775,759.96 476.493,763.351M898,761.935C889.135,764.642 879.82,773.056 876.351,781.493C875.333,783.968 874.275,785.994 874,785.996C873.724,785.998 873.645,781.05 873.824,775L874.148,764L860.074,764C846.969,764 842.857,764.868 848.092,766.529C849.243,766.894 851.033,769.062 852.07,771.347C853.818,775.196 853.958,778.485 853.978,816.282C854.002,860.704 853.891,861.682 848.373,865.795C846.513,867.182 846.029,867.975 847,868.044C853.818,868.534 870.681,868.643 875.756,868.231L882.012,867.723L878.42,864.611C875.047,861.69 874.766,860.98 873.82,853C873.242,848.122 873.052,834.465 873.376,820.954C874.027,793.725 875.283,787.534 881.67,780.072C885.516,775.58 891.73,772.06 895.884,772.022C900.268,771.982 905.978,774.289 909.99,777.723L913.964,781.125L916.982,776.367C918.642,773.75 920,770.65 920,769.479C920,766.967 916.644,763.567 912.685,762.067C909.5,760.86 901.749,760.791 898,761.935M1018.186,762.118C1011.276,763.268 1003.255,767.11 998.025,771.775C994.043,775.328 993.865,775.731 994.175,780.5L994.5,785.5L996.662,781.5C999.389,776.456 1004.216,771.885 1010,768.87C1016.324,765.573 1029.565,765.495 1035.624,768.718C1045.624,774.038 1049.402,783.407 1049.093,802.12L1049,807.74L1032.75,808.271C1009.881,809.019 997.375,812.861 988.315,821.92C982.801,827.435 980.675,832.209 980.19,840.173C979.852,845.706 980.203,847.756 982.243,852.173C988.189,865.049 1000.085,870.736 1018.999,869.746C1029.708,869.186 1037.131,866.83 1044.739,861.577L1049.5,858.29L1051.5,861.807C1054.2,866.553 1059.81,869.311 1066.87,869.361C1072.755,869.403 1080,867.506 1080,865.922C1080,865.415 1078.959,865 1077.687,865C1076.412,865 1074.056,863.625 1072.437,861.936L1069.5,858.873L1068.903,824.686C1068.571,805.688 1067.849,789.141 1067.278,787.442C1062.663,773.716 1053.299,765.654 1038.27,762.469C1030.77,760.88 1026.116,760.799 1018.186,762.118M358.097,765.118C348.007,769.107 340.275,779.494 337.44,792.869C336.667,796.516 336.027,800.063 336.017,800.75C336.004,801.724 343.057,802 368,802L400,802L399.983,799.75C399.947,795.115 397.068,784.067 394.655,779.305C391.972,774.011 386.161,768.173 380.81,765.395C375.566,762.674 364.617,762.54 358.097,765.118M933.092,766.529C934.243,766.894 936.033,769.062 937.07,771.347C938.818,775.196 938.958,778.485 938.978,816.282C939.002,860.615 938.837,862.095 933.473,865.609C931.031,867.21 930.953,867.438 932.64,868.061C935.018,868.938 965.61,868.724 966.51,867.824C966.882,867.452 965.882,866.473 964.288,865.649C958.513,862.663 958.527,862.787 958.204,811.25L957.909,764L944.454,764C936.8,764 931,764.103 931,764.103C931,764.103 931.941,766.164 933.092,766.529ZM768.5,767.358C763.36,769.762 756.303,776.568 753.696,781.636C751.473,785.956 748,797.827 748,801.105L748,804L810,804L810,798.605C810,785.9 802.876,772.891 793.132,767.8C785.952,764.049 775.957,763.87 768.5,767.358M608.5,811.002C600.09,812.266 595.4,813.884 590.343,817.264C584.282,821.314 579.338,828.567 578.405,834.777C577.459,841.069 579.326,849.541 582.75,854.5C590.834,866.206 610.606,867.307 624.523,856.826L628.938,853.5L629,810L621.25,810.125C616.987,810.193 611.25,810.588 608.5,811.002M1027.528,812.066C1011.106,814.812 1001.199,823.48 999.455,836.628C997.905,848.315 1004.964,860.05 1015.282,862.939C1025.386,865.768 1037.709,863.081 1045.817,856.282L1049.134,853.5L1049.608,837C1049.869,827.925 1049.797,818.362 1049.447,815.75L1048.812,811L1040.656,811.118C1036.17,811.182 1030.263,811.609 1027.528,812.066M457.746,872.75C451.236,879.42 449.165,890.365 452.871,898.521C455.395,904.078 463.907,911.447 470.765,914.013C487.106,920.127 507.683,919.185 521.361,911.697C535.533,903.937 539.118,890.854 529.662,881.399C523.553,875.289 516.034,873.26 494.643,871.946C485.214,871.368 475.055,870.468 472.066,869.947C463.147,868.393 461.728,868.67 457.746,872.75" style="fill:rgb(21,21,21);"/>
    </g>
    <g transform="matrix(-1.204819,0,0,1.204819,1320.64296,-144.578313)">
        <path d="M521.759,374.016C521.759,374.016 463.2,373.955 436.924,373.928C433.612,373.924 430.435,375.239 428.093,377.582C425.752,379.924 424.439,383.103 424.444,386.415C424.474,405.366 424.531,441.159 424.56,460.07C424.571,466.938 430.142,472.5 437.01,472.5C463.988,472.5 606.5,472.5 606.5,472.5L606.759,423.25L607.019,374L521.759,374.016ZM436.417,485.511C436.417,485.511 436.17,617.874 436.092,659.663C436.086,662.971 437.397,666.145 439.734,668.485C442.072,670.825 445.245,672.139 448.553,672.136C487.943,672.102 607.01,672 607.01,672L606.5,485.67" style="fill:rgb(21,21,21);"/>
    </g>
    <g transform="matrix(1.204819,0,0,1.204819,-170.060241,-159.578313)">
        <path d="M532.902,239.925C521.408,241.524 509.702,249.734 504.624,259.756C501.561,265.8 499.537,276.663 500.418,282.325C504.44,308.157 520.172,330.276 547.348,348.307C559.624,356.453 576.184,364.025 586,367.887C598.189,372.682 606.462,375.687 624.138,375.07C647.076,374.269 658.491,369.218 670.901,363.311C701.745,348.629 725.965,330.175 738.866,306.315C744.612,295.687 746.172,291.063 746.118,278.83C746.08,270.234 744.131,265.884 741.786,260.801C728.715,232.482 686.983,232.094 650.523,259.955C646.951,262.684 629.481,280.365 626.271,284.5L623.165,288.5L619.84,284.5C607.931,270.172 593.158,257.245 581.5,250.951C578.2,249.17 575.021,247.341 574.435,246.887C573.849,246.433 569.278,244.725 564.277,243.091C554.286,239.826 542.302,238.616 532.902,239.925M571,291.917C558.894,294.427 550.925,305.278 552.35,317.31C554.672,336.916 576.466,358.642 603.988,366.996C614.968,370.329 638.909,368.816 649.5,364.347C660.984,359.501 670.106,353.607 678.15,345.835C684.254,339.938 686.551,336.82 689.871,329.927C693.305,322.797 694,320.339 694,315.326C694,312.011 693.49,307.769 692.867,305.899C691.422,301.561 685.516,295.296 681,293.31C673.805,290.146 658.75,291.791 649.967,296.702C641.594,301.383 639.58,302.965 631.766,311L623.5,319.5L614.999,311C606.231,302.232 598.998,297.289 590.27,294.099C584.205,291.882 575.773,290.927 571,291.917" style="fill:rgb(240,74,62);"/>
    </g>
    <g transform="matrix(1.204819,0,0,1.204819,-186.060241,-126.578313)">
        <path d="M484.5,951.201C474.865,956.691 476.06,968.586 486.738,973.488C488.807,974.438 492.88,976.353 495.789,977.744C504.165,981.749 505.999,985.989 501.687,991.378C499.839,993.687 498.406,994.341 494.442,994.684C488.391,995.207 483.392,992.913 480.505,988.289C479.402,986.522 478.25,985.06 477.946,985.039C477.641,985.017 477.286,986.775 477.158,988.945C476.894,993.422 478.05,994.403 486.097,996.525C499.388,1000.032 511.496,992.79 509.564,982.49C508.591,977.304 504.063,973.231 495.376,969.727C487.292,966.468 484.346,964.227 483.45,960.657C482.932,958.591 483.423,957.423 485.821,955.025C490.77,950.076 499.089,951.319 503.865,957.722L505.937,960.5L505.968,956.493C505.998,952.687 505.801,952.425 502.016,951.243C497.07,949.7 487.176,949.676 484.5,951.201M566.619,951.75C567.937,954.519 568.286,991.598 567.016,993.97C566.003,995.863 566.219,996 570.215,996.001L574.5,996.002L574.162,985.001L573.823,974L598.125,974L597.812,985.002L597.5,996.004L605.5,996L605.5,949.909L601.616,950.205L597.732,950.5L597.922,961.25L598.111,972L573.823,972L574.162,960.999L574.5,949.998L570.143,949.999C566.343,950 565.893,950.224 566.619,951.75M675.428,951.954C659.796,958.913 657.68,983.491 671.872,993.256C675.39,995.677 677.631,996.384 682.997,996.768C691.616,997.384 695.911,995.931 701.248,990.593C712.591,979.246 709.285,959.288 694.843,951.92C690.027,949.463 680.987,949.479 675.428,951.954M764.597,951.631C766.026,954.59 766.313,992.918 764.918,994.598C763.951,995.764 764.491,996 768.128,996.002L772.5,996.005L772.181,987.652L771.862,979.3L779.058,978.631C787.789,977.82 791.416,975.838 794.021,970.456C796.504,965.328 796.493,964.028 793.927,958.568C790.997,952.334 787.133,950.699 774.097,950.178C764.211,949.782 763.739,949.855 764.597,951.631M680.021,953.116C673.277,955.806 669.699,962.645 669.593,973.042C669.53,979.221 669.968,981.462 672.014,985.439C675.566,992.341 678.867,994.513 685.699,994.445C690.872,994.393 691.504,994.114 695.054,990.307C699.805,985.214 701.407,979.635 700.672,970.738C699.95,961.989 697.043,956.683 691.5,954C687.005,951.824 683.865,951.582 680.021,953.116M772.219,964.25L772.5,976.5L777.862,976.209C780.811,976.049 783.755,975.374 784.403,974.709C791.648,967.277 790.194,957.068 781.364,953.379C779.549,952.62 776.686,952 775.001,952L771.938,952L772.219,964.25M342.5,971C342.16,971.55 342.16,972.45 342.5,973C342.897,973.642 359.01,974 387.559,974C431.333,974 432,973.97 432,972C432,970.03 431.333,970 387.559,970C359.01,970 342.897,970.358 342.5,971M826,971.5C826,972.811 831.667,973 871,973C910.333,973 916,972.811 916,971.5C916,970.189 910.333,970 871,970C831.667,970 826,970.189 826,971.5" style="fill:rgb(240,74,62);"/>
    </g>
    <g transform="matrix(1.204819,0,0,1.204819,-167.060241,-131.578313)">
        <path d="M940.299,713.313C931.25,712.282 930,721.306 930,722.893C930,726.349 930.754,728.796 932.822,732.054C935.625,736.47 945.2,743.68 948.769,747C948.769,747 953.372,743.513 957.78,739.25C968.813,728.58 970.727,719.976 966.043,715.292C963.877,713.126 961.214,712.153 957.395,712.429C952.78,712.762 948.98,719.989 948.98,719.989C948.98,719.989 944.912,713.839 940.299,713.313Z" style="fill:rgb(240,74,62);"/>
    </g>
</svg>
