<svg xmlns="http://www.w3.org/2000/svg" viewBox="300 120 600 560" role="img" aria-labelledby="title">
  <title id="title">Regalo Regaleria Shop</title>
  <g transform="matrix(1.204819,0,0,1.204819,-165.060241,-144.578313)">
    <path fill="#151515" d="M521.759 374.016s-58.559-.061-84.835-.088c-3.312-.004-6.489 1.311-8.831 3.654-2.341 2.342-3.654 5.521-3.649 8.833.03 18.951.087 54.744.116 73.655.011 6.868 5.582 12.43 12.45 12.43H606.5l.259-49.25.26-49.25-85.26.016ZM436.417 485.511s-.247 132.363-.325 174.152c-.006 3.308 1.305 6.482 3.642 8.822 2.338 2.34 5.511 3.654 8.819 3.651 39.39-.034 158.457-.136 158.457-.136l-.51-186.33"/>
  </g>
  <g transform="matrix(-1.204819,0,0,1.204819,1320.64296,-144.578313)">
    <path fill="#151515" d="M521.759 374.016s-58.559-.061-84.835-.088c-3.312-.004-6.489 1.311-8.831 3.654-2.341 2.342-3.654 5.521-3.649 8.833.03 18.951.087 54.744.116 73.655.011 6.868 5.582 12.43 12.45 12.43H606.5l.259-49.25.26-49.25-85.26.016ZM436.417 485.511s-.247 132.363-.325 174.152c-.006 3.308 1.305 6.482 3.642 8.822 2.338 2.34 5.511 3.654 8.819 3.651 39.39-.034 158.457-.136 158.457-.136l-.51-186.33"/>
  </g>
  <g transform="matrix(1.204819,0,0,1.204819,-170.060241,-159.578313)">
    <path fill="#f04a3e" d="M532.902 239.925c-11.494 1.599-23.2 9.809-28.278 19.831-3.063 6.044-5.087 16.907-4.206 22.569 4.022 25.832 19.754 47.951 46.93 65.982 12.276 8.146 28.836 15.718 38.652 19.58 12.189 4.795 20.462 7.8 38.138 7.183 22.938-.801 34.353-5.852 46.763-11.759 30.844-14.682 55.064-33.136 67.965-56.996 5.746-10.628 7.306-15.252 7.252-27.485-.038-8.596-1.987-12.946-4.332-18.029-13.071-28.319-54.803-28.707-91.263-.846-3.572 2.729-21.042 20.41-24.252 24.545l-3.106 4.5-3.325-4.5c-11.909-14.33-26.682-27.857-38.34-34.149-3.3-1.781-6.479-4.002-7.065-4.456-.586-.454-5.157-2.162-10.158-3.796-9.991-3.265-21.975-4.475-31.375-2.876Zm38.098 51.992c-12.106 2.51-20.075 13.361-18.65 25.393 2.322 19.606 24.116 41.332 51.638 49.686 10.98 3.333 34.919 1.82 45.512-2.649 11.484-4.846 20.606-10.66 28.65-18.432 6.134-5.927 8.401-9.461 11.721-15.9 3.434-6.693 4.129-9.29 4.129-14.601 0-3.315-.51-8.559-1.133-9.427-1.445-4.338-7.351-10.943-11.866-12.589-7.195-3.145-22.25-1.519-31.033 3.392-8.373 4.681-10.387 6.645-18.201 14.68l-8.266 8.5-8.501-8.5c-8.768-8.768-16.001-13.54-24.729-16.73-5.77-2.102-14.227-2.407-19.001-1.416Z"/>
  </g>
</svg>
