<?xml version="1.0" encoding="UTF-8" standalone="no"?><!DOCTYPE svg PUBLIC "-//W3C//DTD SVG 1.1//EN" "http://www.w3.org/Graphics/SVG/1.1/DTD/svg11.dtd"><svg width="100%" height="100%" viewBox="0 0 6867 2609" version="1.1" xmlns="http://www.w3.org/2000/svg" xmlns:xlink="http://www.w3.org/1999/xlink" xml:space="preserve" xmlns:serif="http://www.serif.com/" style="fill-rule:evenodd;clip-rule:evenodd;stroke-linejoin:round;stroke-miterlimit:2;"><rect id="Mesa-de-trabajo1" serif:id="Mesa de trabajo1" x="0" y="0" width="6866.667" height="2608.333" style="fill:none;"/><g><path d="M660.687,916.847c0,0 -293.971,-0.306 -425.878,-0.442c-16.627,-0.02 -32.575,6.581 -44.332,18.343c-11.752,11.757 -18.343,27.716 -18.318,44.342c0.151,95.136 0.437,274.819 0.582,369.754c0.055,34.478 28.022,62.4 62.5,62.4l850.853,0l1.3,-247.239l1.305,-247.239l-428.012,0.08Zm-428.424,559.714c0,0 -1.24,664.473 -1.632,874.257c-0.03,16.606 6.551,32.54 18.283,44.287c11.737,11.747 27.666,18.343 44.272,18.328c197.741,-0.171 795.467,-0.683 795.467,-0.683l-2.56,-935.391" style="fill:#fff;"/></g><g><path d="M2254.417,929.778c0,2.485 5.547,7.485 12.324,11.114c6.777,3.624 16.375,14.739 21.335,24.694c8.409,16.888 9.011,41.431 9.011,366.993c0,324.372 -0.622,350.04 -8.891,365.166c-4.89,8.946 -14.739,20.1 -21.888,24.784l-12.997,8.514l11.847,4.423c12.058,4.503 179.965,3.308 180,-1.28c0.01,-1.381 -7.721,-8.685 -17.179,-16.23c-25.246,-20.146 -28.404,-43.373 -26.817,-197.123l1.345,-130.522l17.234,-1.642c9.478,-0.904 24.774,-0.226 33.986,1.501c15.196,2.851 22.907,12.364 82.736,102.043c36.285,54.398 79.644,116.973 96.355,139.061c135.472,179.091 335.653,275.196 568.479,272.912c68.805,-0.678 69.147,-0.738 27.013,-4.664c-172.962,-16.13 -280.176,-63.635 -389.493,-172.585c-52.761,-52.585 -96.411,-109.473 -182.048,-237.264c-33.69,-50.271 -63.454,-92.761 -66.14,-94.423c-10.296,-6.365 -3.87,-10.673 24.754,-16.581c73.112,-15.105 137.149,-64.453 170.206,-131.165c17.861,-36.044 18.519,-39.287 18.404,-90.361c-0.1,-43.579 -2.199,-58.183 -11.832,-82.314c-24.116,-60.407 -76.642,-107.098 -148.69,-132.179l-40.161,-13.981l-174.448,-1.707c-101.345,-0.989 -174.448,0.191 -174.448,2.816m2439.758,0.387c0,2.319 5.291,6.627 11.757,9.573c6.466,2.947 16.064,14.036 21.335,24.649c9.086,18.303 9.654,36.315 11.039,349.638c0.924,209.302 -0.422,340.823 -3.665,358.936c-4.197,23.409 -8.484,31.556 -23.635,44.91c-10.176,8.976 -17.565,16.616 -16.416,16.988c1.155,0.371 42.189,1.21 91.2,1.862c63.745,0.848 89.106,-0.437 89.106,-4.503c0,-3.133 -5.075,-7.922 -11.275,-10.648c-26.737,-11.752 -26.27,-4.719 -27.721,-415.346l-1.35,-380.271l-70.186,0c-38.604,0 -70.191,1.898 -70.191,4.212m-2294.176,226.25l0,211.305l21.335,0.462c52.154,1.13 112.937,-0.507 126.757,-3.404c26.958,-5.653 73.062,-33.474 92.992,-56.119c75.236,-85.467 72.269,-230.648 -6.315,-309.232c-40.768,-40.768 -68.64,-49.844 -160.723,-52.319l-74.046,-1.993l0,211.3m1536.762,-14.056c-9.322,2.801 -29.106,17.254 -43.966,32.113l-27.018,27.013l-28.82,-10.08c-16.305,-5.703 -48.449,-11.25 -74.006,-12.766c-80.803,-4.794 -149.086,17.184 -201.109,64.734c-61.34,56.064 -76.104,133.178 -39.759,207.726c11.511,23.624 51.225,66.732 75.206,81.642c5.803,3.609 7.716,7.249 4.533,8.624c-3.027,1.31 -14.724,9.162 -25.984,17.445c-36.039,26.501 -51.024,77.128 -34.518,116.631c6.717,16.079 39.282,48.705 48.614,48.705c12.129,0 2.861,9.433 -16.551,16.847c-70.502,26.928 -101.983,101.195 -67.696,159.704c24.197,41.29 70.075,69.377 147.274,90.166c56.119,15.115 167.967,15.125 224.518,0.025c53.298,-14.227 94.588,-37.309 123.66,-69.111c29.061,-31.802 40.467,-62.038 40.316,-106.908c-0.251,-75.633 -50.708,-125.05 -146.551,-143.534c-20.115,-3.876 -82.073,-9.227 -137.686,-11.888c-84.724,-4.051 -105.115,-6.556 -125.798,-15.457c-42.364,-18.223 -53.619,-57.766 -24.282,-85.326l12.204,-11.466l39.518,10.663c47.751,12.887 116.15,14.167 159.101,2.977c64.839,-16.888 117.144,-57.344 146.601,-113.384c12.711,-24.177 14.202,-32.043 14.172,-74.714c-0.025,-39.152 -2.134,-52.354 -11.762,-73.75c-11.009,-24.453 -58.122,-76.039 -76.019,-83.228c-6.109,-2.45 -5.296,-4.965 4.332,-13.384c16.16,-14.132 41.185,-13.248 64.041,2.269c20.587,13.966 34.041,12.972 48.353,-3.584c11.963,-13.835 11.034,-31.054 -2.51,-46.325c-13.153,-14.834 -42.54,-20.156 -68.409,-12.38m-850.793,52.59c-47.811,11.576 -94.674,39.352 -130.567,77.405c-52.239,55.376 -75.065,116.893 -74.513,200.788c0.532,80.191 28.429,143.835 86.702,197.786c53.7,49.714 118.715,73.298 202.068,73.298c83.499,0 141.205,-21.155 197.676,-72.475c28.951,-26.305 41.476,-44.885 34.784,-51.576c-1.546,-1.551 -16.34,9.704 -32.871,25.01c-36.401,33.7 -72.585,51.596 -120.221,59.463c-71.19,11.757 -141.772,-10.577 -192.093,-60.783c-47.821,-47.711 -76.747,-121.441 -73.574,-187.54l1.481,-30.873l421.687,-1.235l-1.36,-25.251c-4.006,-74.503 -55.442,-151.175 -123.534,-184.152c-56.621,-27.42 -132.59,-35.131 -195.663,-19.864m1214.533,-2.646c-39.297,6.064 -87.585,29.167 -112.013,53.594c-15.517,15.517 -19.885,23.81 -20.447,38.83c-1.119,29.794 3.996,30.753 19.478,3.65c19.538,-34.212 45.889,-54.588 86.707,-67.053c58.735,-17.942 109.859,-5.321 145.06,35.803c24.588,28.725 33.926,61.888 33.926,120.517l0,48.926l-84.086,2.781c-88.635,2.927 -122.4,9.147 -171.586,31.611c-38.439,17.555 -66.029,41.812 -83.143,73.102c-12.515,22.871 -14.764,32.6 -14.92,64.578c-0.156,32.58 1.832,41.285 14.774,64.654c19.086,34.463 50.447,58.313 94.096,71.571c28.303,8.599 43.69,10.08 85.713,8.258c59.684,-2.59 96.255,-13.941 135.316,-41.998c14.227,-10.221 26.546,-16.566 27.38,-14.101c0.833,2.47 6.074,11.968 11.647,21.104c12.676,20.793 39.302,32.41 75.171,32.791c27.204,0.291 65.261,-9.116 65.261,-16.13c0,-1.973 -7.159,-5.753 -15.909,-8.394c-8.745,-2.641 -20.607,-11.175 -26.355,-18.966c-9.975,-13.519 -10.567,-22.018 -13.143,-188.253c-2.555,-165.306 -3.263,-175.522 -13.971,-202.44c-13.419,-33.73 -42.977,-68.845 -72.515,-86.16c-43.158,-25.291 -111.034,-36.822 -166.441,-28.278m884.739,5.507c-138.685,17.058 -235.181,130.05 -234.98,275.13c0.166,118.489 62.565,209.935 173.132,253.73c66.963,26.521 178.76,22.455 240.964,-8.765c31.396,-15.758 66.17,-42.826 85.808,-66.792c26.506,-32.349 16.27,-37.806 -15.156,-8.082c-72.631,68.69 -178.037,84.769 -264.955,40.427c-28.238,-14.403 -70.542,-57.696 -85.743,-87.746c-20.643,-40.798 -33.71,-90.467 -33.71,-128.117l0,-34.613l416.667,0l-0.06,-18.825c-0.075,-24.096 -11.009,-65.146 -25.115,-94.277c-28.474,-58.825 -105.266,-113.358 -169.167,-120.13c-15.979,-1.697 -34.699,-3.755 -41.601,-4.573c-6.903,-0.818 -27.641,0.366 -46.084,2.636m-1497.625,11.029c-44.307,20.633 -71.516,61.536 -82.977,124.734c-10.693,58.981 6.973,133.102 40.929,171.672c36.421,41.381 81.632,55.673 130.838,41.37c36.862,-10.718 65.336,-36.426 85.341,-77.053c14.362,-29.182 16.621,-39.322 18.353,-82.344c3.464,-86.33 -23.901,-147.425 -78.906,-176.16c-35.271,-18.429 -77.023,-19.242 -113.579,-2.219m2115.999,-7.108c-44.503,13.589 -91.265,55.828 -108.68,98.183c-5.11,12.425 -10.422,22.595 -11.802,22.605c-1.386,0.01 -1.782,-24.829 -0.884,-55.201l1.627,-55.221l-70.653,0c-65.788,0 -86.431,4.357 -60.151,12.696c5.778,1.832 14.764,12.716 19.97,24.187c8.775,19.322 9.478,35.833 9.578,225.577c0.12,223.002 -0.437,227.912 -28.138,248.559c-9.337,6.963 -11.767,10.944 -6.893,11.29c34.227,2.46 118.88,3.007 144.357,0.939l31.406,-2.55l-18.032,-15.622c-16.933,-14.664 -18.343,-18.228 -23.092,-58.288c-2.902,-24.488 -3.855,-93.047 -2.229,-160.873c3.268,-136.692 9.573,-167.771 41.637,-205.231c19.307,-22.55 50.502,-40.221 71.355,-40.412c22.008,-0.201 50.673,11.381 70.813,28.619l19.95,17.078l15.151,-23.886c8.333,-13.138 15.151,-28.7 15.151,-34.578c0,-12.61 -16.847,-29.679 -36.722,-37.209c-15.989,-6.059 -54.9,-6.406 -73.72,-0.663m603.343,0.919c-34.689,5.773 -74.955,25.06 -101.21,48.479c-19.99,17.836 -20.884,19.859 -19.327,43.8l1.632,25.1l10.853,-20.08c13.69,-25.321 37.922,-48.268 66.958,-63.404c31.747,-16.551 98.218,-16.943 128.635,-0.763c50.201,26.707 69.167,73.74 67.615,167.681l-0.467,28.213l-81.576,2.666c-114.804,3.755 -177.585,23.042 -223.067,68.519c-27.681,27.686 -38.353,51.652 -40.788,91.632c-1.697,27.776 0.065,38.067 10.306,60.241c29.849,64.639 89.568,93.188 184.518,88.218c53.76,-2.811 91.024,-14.639 129.217,-41.009l23.901,-16.501l10.04,17.656c13.554,23.825 41.717,37.671 77.159,37.922c29.543,0.211 65.914,-9.312 65.914,-17.264c0,-2.545 -5.226,-4.629 -11.611,-4.629c-6.401,0 -18.228,-6.903 -26.355,-15.382l-14.744,-15.377l-2.997,-171.621c-1.667,-95.371 -5.291,-178.439 -8.158,-186.968c-23.168,-68.906 -70.176,-109.377 -145.622,-125.366c-37.651,-7.977 -61.014,-8.384 -100.823,-1.762m-3313.699,15.06c-50.653,20.025 -89.468,72.169 -103.7,139.312c-3.881,18.308 -7.093,36.114 -7.144,39.563c-0.065,4.89 35.341,6.275 160.557,6.275l160.643,0l-0.085,-11.295c-0.181,-23.268 -14.634,-78.73 -26.747,-102.636c-13.469,-26.576 -42.641,-55.884 -69.503,-69.829c-26.325,-13.66 -81.29,-14.332 -114.021,-1.391m2886.52,7.083c5.778,1.832 14.764,12.716 19.97,24.187c8.775,19.322 9.478,35.833 9.578,225.577c0.12,222.555 -0.708,229.985 -27.636,247.625c-12.259,8.037 -12.651,9.182 -4.182,12.309c11.938,4.403 165.512,3.328 170.03,-1.19c1.867,-1.867 -3.153,-6.782 -11.155,-10.919c-28.991,-14.99 -28.921,-14.367 -30.542,-273.087l-1.481,-237.199l-67.545,0c-38.424,0 -67.54,0.517 -67.54,0.517c0,0 4.724,10.346 10.502,12.179Zm-826.265,4.162c-25.803,12.068 -61.23,46.235 -74.317,71.677c-11.16,21.687 -28.594,81.28 -28.594,97.736l0,14.533l311.245,0l0,-27.083c0,-63.78 -35.763,-129.086 -84.679,-154.644c-36.044,-18.83 -86.22,-19.729 -123.655,-2.219m-803.213,219.096c-42.219,6.345 -65.763,14.468 -91.15,31.436c-30.427,20.331 -55.246,56.742 -59.93,87.917c-4.749,31.586 4.623,74.116 21.812,99.011c40.582,58.765 139.839,64.292 209.704,11.677l22.164,-16.697l0.311,-218.373l-38.906,0.628c-21.401,0.341 -50.201,2.324 -64.006,4.403m2103.554,5.341c-82.44,13.785 -132.174,57.299 -140.929,123.303c-7.781,58.67 27.656,117.58 79.453,132.083c50.723,14.202 112.585,0.713 153.288,-33.419l16.652,-13.966l2.38,-82.831c1.31,-45.557 0.949,-93.564 -0.808,-106.677l-3.188,-23.845l-40.944,0.592c-22.52,0.321 -52.174,2.465 -65.904,4.759m-2860.351,304.638c-32.681,33.484 -43.077,88.429 -24.473,129.372c12.671,27.897 55.402,64.89 89.829,77.771c82.033,30.693 185.331,25.964 253.996,-11.627c71.145,-38.956 89.142,-104.634 41.672,-152.098c-30.668,-30.673 -68.414,-40.858 -175.798,-47.455c-47.334,-2.902 -98.333,-7.42 -113.338,-10.035c-44.774,-7.801 -51.898,-6.411 -71.888,14.071" style="fill:#fff;"/></g><g><path d="M1612.574,916.847c0,0 293.971,-0.306 425.878,-0.442c16.627,-0.02 32.575,6.581 44.332,18.343c11.752,11.757 18.343,27.716 18.318,44.342c-0.151,95.136 -0.437,274.819 -0.582,369.754c-0.055,34.478 -28.022,62.4 -62.5,62.4l-850.853,0l-1.3,-247.239l-1.305,-247.239l428.012,0.08Zm428.424,559.714c0,0 1.24,664.473 1.632,874.257c0.03,16.606 -6.551,32.54 -18.283,44.287c-11.737,11.747 -27.666,18.343 -44.272,18.328c-197.741,-0.171 -795.467,-0.683 -795.467,-0.683l2.56,-935.391" style="fill:#fff;"/></g><g><path d="M695.793,181.2c-57.701,8.027 -116.466,49.242 -141.958,99.553c-15.377,30.341 -25.537,84.874 -21.114,113.298c20.191,129.679 99.167,240.718 235.592,331.235c61.626,40.894 144.759,78.906 194.036,98.293c61.19,24.071 102.721,39.157 191.456,36.059c115.151,-4.021 172.455,-29.378 234.754,-59.031c154.839,-73.705 276.426,-166.345 341.19,-286.124c28.845,-53.353 36.677,-76.566 36.406,-137.977c-0.191,-43.153 -9.975,-64.99 -21.747,-90.507c-65.617,-142.164 -275.115,-144.111 -458.147,-4.247c-17.932,13.7 -105.633,102.46 -121.747,123.218l-15.592,20.08l-16.692,-20.08c-59.784,-71.928 -133.946,-136.822 -192.47,-168.419c-16.566,-8.941 -32.525,-18.122 -35.467,-20.402c-2.942,-2.279 -25.889,-10.853 -50.994,-19.056c-50.156,-16.391 -110.316,-22.465 -157.505,-15.894m191.255,261.004c-60.773,12.6 -100.778,67.073 -93.624,127.475c11.657,98.424 121.064,207.49 259.227,249.428c55.12,16.732 175.306,9.137 228.474,-13.298c57.651,-24.327 103.444,-53.916 143.825,-92.932c30.643,-29.603 42.174,-45.256 58.84,-79.859c17.239,-35.793 20.728,-48.133 20.728,-73.298c0,-16.642 -2.56,-37.937 -5.688,-47.324c-7.254,-21.777 -36.903,-53.228 -59.573,-63.198c-36.119,-15.884 -111.697,-7.626 -155.788,17.028c-42.033,23.499 -52.144,31.441 -91.37,71.777l-41.496,42.671l-42.676,-42.671c-44.016,-44.016 -80.326,-68.83 -124.142,-84.844c-30.447,-11.13 -72.776,-15.924 -96.737,-10.954" style="fill:#fff;"/></g><g><path d="M2352.811,2131.028c-48.368,27.56 -42.369,87.274 11.235,111.883c10.387,4.769 30.833,14.383 45.437,21.365c42.048,20.105 51.255,41.391 29.608,68.444c-9.277,11.591 -16.471,14.874 -36.37,16.596c-30.376,2.626 -55.472,-8.891 -69.965,-32.103c-5.537,-8.87 -11.32,-16.21 -12.846,-16.315c-1.531,-0.11 -3.313,8.715 -3.956,19.608c-1.325,22.475 4.478,27.4 44.874,38.052c66.722,17.605 127.505,-18.75 117.806,-70.457c-4.885,-26.034 -27.615,-46.481 -71.225,-64.071c-40.582,-16.36 -55.371,-27.61 -59.869,-45.532c-2.6,-10.371 -0.136,-16.235 11.903,-28.273c24.844,-24.844 66.606,-18.604 90.582,13.539l10.402,13.946l0.156,-20.115c0.151,-19.106 -0.838,-20.422 -19.839,-26.355c-24.829,-7.746 -74.498,-7.866 -87.932,-0.211m412.244,2.756c6.616,13.901 8.368,200.04 1.993,211.948c-5.085,9.503 -4.001,10.191 16.059,10.196l21.511,0.005l-1.697,-55.226l-1.702,-55.226l121.998,0l-1.571,55.231l-1.566,55.231l40.161,-0.02l0,-231.38l-19.498,1.486l-19.498,1.481l0.954,53.966l0.949,53.966l-121.928,0l1.702,-55.226l1.697,-55.226l-21.872,0.005c-19.076,0.005 -21.335,1.13 -17.691,8.79m546.23,1.024c-78.474,34.935 -89.096,158.318 -17.851,207.339c17.661,12.154 28.911,15.703 55.848,17.631c43.268,3.092 64.829,-4.202 91.621,-30.999c56.943,-56.963 40.346,-157.154 -32.154,-194.142c-24.177,-12.334 -69.558,-12.254 -97.465,0.171m447.635,-1.621c7.174,14.854 8.614,207.264 1.611,215.698c-4.854,5.853 -2.144,7.038 16.114,7.048l21.948,0.015l-1.601,-41.933l-1.601,-41.928l36.124,-3.358c43.83,-4.071 62.038,-14.021 75.115,-41.039c12.465,-25.743 12.41,-32.269 -0.472,-59.679c-14.709,-31.295 -34.106,-39.503 -99.548,-42.118c-49.629,-1.988 -51.998,-1.621 -47.691,7.294m-424.578,7.455c-33.855,13.504 -51.817,47.836 -52.349,100.03c-0.316,31.019 1.883,42.269 12.154,62.234c17.831,34.649 34.403,45.552 68.7,45.211c25.969,-0.261 29.142,-1.662 46.963,-20.773c23.85,-25.567 31.893,-53.574 28.203,-98.238c-3.624,-43.921 -18.218,-70.557 -46.044,-84.026c-22.565,-10.924 -38.328,-12.139 -57.625,-4.438m462.841,55.894l1.411,61.496l26.918,-1.461c14.804,-0.803 29.583,-4.192 32.836,-7.53c36.37,-37.309 29.071,-88.559 -15.256,-107.078c-9.111,-3.81 -23.484,-6.923 -31.943,-6.923l-15.377,0l1.411,61.496" style="fill:#fff;"/></g><g><path d="M6003.458,974.311c-45.427,-5.176 -51.702,40.125 -51.702,48.092c0,17.349 3.785,29.634 14.167,45.989c14.071,22.169 62.139,58.363 80.055,75.03c0,0 23.107,-17.505 45.236,-38.906c55.387,-53.564 64.995,-96.757 41.481,-120.271c-10.873,-10.873 -24.242,-15.758 -43.414,-14.372c-23.168,1.672 -42.244,37.952 -42.244,37.952c0,0 -20.422,-30.873 -43.579,-33.514Z" style="fill:#fff;"/></g></svg>