<svg width="512" height="512" viewBox="135 175 990 795" fill="none" xmlns="http://www.w3.org/2000/svg" role="img" aria-label="Regaleria Shop">
  <rect x="0" y="0" width="1254" height="1254" fill="#fbf7ee"/>
  <defs>
    <linearGradient id="regaleriaGold" x1="171" y1="208" x2="1080" y2="1076" gradientUnits="userSpaceOnUse">
      <stop offset="0" stop-color="#c79b2f"/>
      <stop offset="0.5" stop-color="#b88a1e"/>
      <stop offset="1" stop-color="#9d7418"/>
    </linearGradient>
  </defs>
  <path fill-rule="evenodd" clip-rule="evenodd" d="M 530.661 208.067 C 513.677 210.410, 497.764 218.304, 485.434 230.500 C 466.619 249.112, 458.394 272.048, 461.084 298.407 C 464.022 327.205, 481.216 356.534, 510.855 383.309 C 553.108 421.478, 611.687 449.967, 670.500 460.952 C 697.949 466.078, 703.539 466.388, 770.500 466.488 C 840.057 466.591, 838.827 466.493, 852.500 473.028 C 865.961 479.462, 876.379 491.230, 881.794 506.119 C 884.414 513.324, 884.486 514.137, 884.812 540.250 L 885.145 567 901.073 567 L 917 567 916.994 543.750 C 916.986 511.416, 915.099 500.110, 907.020 483.996 C 900.545 471.078, 889.252 457.977, 878 450.326 C 866.345 442.401, 849.436 436.235, 837.051 435.394 C 832.898 435.111, 802.725 434.747, 770 434.583 C 706.217 434.264, 699.920 433.869, 673.574 428.534 C 631.768 420.070, 590.350 401.581, 556.305 376.186 C 514.004 344.633, 494.050 309.793, 500.005 277.886 C 502.495 264.548, 511.651 252.258, 523.443 246.431 C 561.364 227.689, 610.810 271.088, 641.852 350.355 C 647.621 365.089, 653.735 383.006, 656.018 391.874 C 658.810 402.721, 658.647 402.795, 664.578 388 C 681.365 346.122, 701.899 314.742, 722.940 298.814 C 744.970 282.136, 768.572 280.530, 782.792 294.742 C 788.937 300.883, 791.204 306.653, 791.760 317.566 C 792.345 329.040, 789.884 338.686, 783.061 351.663 C 776.636 363.882, 768.614 374.459, 756.879 386.185 C 747.455 395.602, 731.287 408.462, 723.060 413.087 C 720.827 414.342, 719 415.706, 719 416.119 C 719 417.295, 735.740 416.254, 743.500 414.596 C 758.474 411.396, 772.996 404.678, 785.808 395.024 C 805.255 380.370, 819.927 357.867, 824.428 335.792 C 826.635 324.971, 826.466 310.142, 824.028 300.609 C 819.250 281.927, 806.335 265.706, 789.500 257.241 C 780.882 252.908, 773.764 251.020, 763.451 250.330 C 729.698 248.072, 695.566 269.095, 668.564 308.774 C 665.849 312.764, 663.295 315.684, 662.889 315.264 C 662.483 314.844, 658.826 307.975, 654.764 300 C 632.777 256.838, 609.854 230.866, 581.500 216.989 C 576 214.298, 567.944 211.178, 563.598 210.057 C 554.146 207.619, 540.070 206.769, 530.661 208.067 M 410.539 430.112 C 397.896 431.954, 382.743 438.009, 371.381 445.759 C 353.404 458.021, 339.279 478.650, 333.816 500.623 C 331.802 508.720, 331.604 512.048, 331.554 538.500 L 331.500 567.500 347.500 567.500 L 363.500 567.500 364.055 539 C 364.586 511.741, 364.723 510.161, 367.210 502.716 C 373.875 482.758, 389.618 468.341, 410.609 462.972 C 417.885 461.111, 421.893 461, 481.660 461 L 545 461 545 445 L 545 429 480.750 429.122 C 445.413 429.189, 413.818 429.635, 410.539 430.112 M 481.891 509.957 C 473.193 512.903, 443.458 525.643, 423.831 534.832 C 409.434 541.573, 407.989 544.655, 416.183 551.145 C 421.200 555.118, 423 559.218, 423 566.671 C 423 571.943, 416.516 611.870, 405.490 674.500 C 403.069 688.250, 399.034 711.650, 396.524 726.500 C 394.014 741.350, 391.256 755.950, 390.395 758.944 C 387.346 769.559, 382.896 777.148, 375.271 784.738 C 371.229 788.761, 368 792.837, 368 793.915 C 368 794.982, 369.186 796.788, 370.635 797.927 C 373.224 799.964, 374.173 800, 425.635 800 C 476.667 800, 478.051 799.949, 480 798 C 483.081 794.919, 482.478 791.868, 477.914 787.453 C 469.001 778.831, 466.287 768.270, 467.978 748.792 C 469.860 727.114, 476.757 684.141, 480.864 668.500 C 485.470 650.956, 494.215 636.211, 503.356 630.575 C 509.955 626.506, 519.265 625.764, 524.342 628.903 C 529.359 632.003, 531.382 636.936, 531.820 647.137 C 532.244 657.030, 531.053 665.958, 523.498 709.502 C 520.539 726.554, 517.648 745.229, 517.073 751.002 C 514.940 772.412, 518.973 788.738, 528.828 798.593 C 543.741 813.506, 570.316 814.904, 596.365 802.145 C 608.360 796.271, 619.313 788.313, 632.534 775.866 C 637.841 770.870, 642.542 767.169, 642.981 767.641 C 643.420 768.114, 645.699 770.750, 648.047 773.500 C 658.277 785.486, 674.232 794.857, 692.500 799.609 C 700.864 801.785, 705.444 802.294, 720.500 802.720 C 735.847 803.154, 740.324 802.917, 750.871 801.115 C 771.855 797.530, 789.780 790.566, 806 779.698 C 815.059 773.628, 829.134 759.773, 834.805 751.344 C 844.326 737.192, 851.375 719.403, 853.960 703 C 855.660 692.216, 855.224 675.914, 852.935 664.682 C 848.085 640.882, 836.408 623.163, 817 610.152 C 799.832 598.644, 781.634 593.814, 755 593.700 C 743.603 593.651, 735.408 594.163, 728.502 595.356 C 678.849 603.934, 641.943 636.835, 629.220 683.866 C 626.885 692.496, 626.610 695.323, 626.587 711 C 626.564 726.149, 626.867 729.630, 628.842 736.908 C 630.097 741.532, 632.405 748.142, 633.972 751.598 L 636.820 757.880 631.534 762.879 C 623.869 770.129, 611.882 777.645, 605.960 778.915 C 600.050 780.183, 595.144 778.675, 592.614 774.814 C 589.164 769.549, 589.591 763.384, 596.930 712.500 C 602.377 674.736, 603.998 660.908, 603.999 652.197 C 604.002 622.448, 592.946 604.444, 569.602 596.183 C 563.552 594.042, 560.797 593.676, 551 593.710 C 541.540 593.743, 537.935 594.218, 530.678 596.391 C 516.902 600.516, 508.271 605.587, 494.334 617.741 C 487.196 623.967, 486.800 624.176, 487.357 621.421 C 487.682 619.814, 488.884 612.650, 490.027 605.500 C 491.171 598.350, 494.782 575.850, 498.052 555.500 C 501.322 535.150, 503.997 516.813, 503.998 514.750 C 504.002 506.437, 496.858 504.888, 481.891 509.957 M 283 593.752 C 274.333 594.377, 262.753 596.303, 254.217 598.539 C 208.600 610.487, 186.017 647.028, 202.945 681.500 C 210.225 696.322, 220.697 705.374, 247.500 720.011 C 282.486 739.116, 292.527 746.396, 297.413 756.202 C 304.015 769.450, 296.888 782.960, 280.934 787.438 C 273.043 789.653, 259.711 789.463, 251.814 787.024 C 239.973 783.367, 233.111 774.580, 234.244 764.526 C 234.868 758.992, 236.935 755.715, 242.017 752.201 C 244.984 750.150, 245.933 748.814, 245.962 746.651 C 246.096 736.559, 232.834 726.147, 216.816 723.770 C 198.732 721.086, 181.607 729.940, 174.160 745.825 C 171.934 750.575, 171.500 752.885, 171.500 760 C 171.500 770.594, 173.878 776.041, 181.993 784.035 C 191.328 793.231, 207.063 799.565, 229.500 803.158 C 239.899 804.824, 275.973 804.803, 286.500 803.125 C 330.248 796.152, 357.832 776.908, 365.515 748 C 369.967 731.247, 364.523 713.661, 350.500 699.496 C 341.931 690.840, 332.317 684.418, 307 670.439 C 274.552 652.522, 265.575 645.557, 260.272 634.184 C 258.297 629.949, 257.926 627.981, 258.447 624.507 C 259.320 618.683, 262.619 614.037, 268.039 611 C 271.926 608.822, 273.722 608.500, 282 608.501 C 289.624 608.501, 292.423 608.928, 296.176 610.662 C 302.719 613.685, 309.572 620.312, 311.573 625.553 C 313.775 631.319, 313.143 639.587, 310.181 643.746 C 308.981 645.431, 308 647.750, 308 648.901 C 308 652.272, 314.691 658.723, 321.837 662.240 C 327.976 665.263, 329.188 665.500, 338.479 665.500 C 347.208 665.500, 349.209 665.164, 354 662.891 C 360.818 659.656, 366.618 654.064, 369.371 648.070 C 370.949 644.634, 371.469 641.515, 371.466 635.500 C 371.462 628.771, 371.036 626.688, 368.786 622.392 C 363.169 611.668, 348.740 602.488, 329.806 597.593 C 320.067 595.074, 298.641 592.671, 290.738 593.211 C 288.407 593.370, 284.925 593.614, 283 593.752 M 942.446 594.576 C 939.726 595.278, 926.025 600.435, 912 606.034 C 897.975 611.634, 882.237 617.770, 877.027 619.671 C 871.816 621.571, 866.979 623.603, 866.277 624.185 C 864.238 625.877, 864.728 631.444, 867.104 633.594 C 874.977 640.719, 878.820 657.698, 876.979 677.225 C 875.906 688.602, 854.160 813.153, 851.439 823.500 C 850.572 826.800, 848.248 832.796, 846.275 836.825 C 843.541 842.406, 841.060 845.621, 835.853 850.325 C 828.510 856.960, 827.284 860.137, 830.829 863.345 C 832.480 864.840, 837.617 865, 883.829 865 C 934.375 865, 935.025 864.975, 937.087 862.913 C 940.003 859.997, 938.890 856.535, 933.511 851.801 C 926.764 845.862, 925.487 841.393, 925.566 824 C 925.607 814.932, 926.520 802.646, 928.003 791.202 L 930.374 772.904 932.839 776.202 C 937.608 782.581, 948.948 792.694, 954.878 795.854 C 967.443 802.551, 986.564 804.859, 1002.138 801.558 C 1028.657 795.937, 1053.054 775.757, 1067.459 747.525 C 1081.254 720.491, 1085.085 686.302, 1077.619 656.869 C 1072.886 638.214, 1067.452 627.783, 1056.349 616.045 C 1043.651 602.621, 1030.865 596.868, 1013.500 596.768 C 993.216 596.651, 977.189 603.518, 959.809 619.775 C 957.164 622.249, 955.001 624.100, 955.001 623.887 C 955.002 623.674, 955.677 619.675, 956.500 615 C 958.450 603.930, 958.391 599.704, 956.250 597.061 C 953.771 594.001, 948.412 593.036, 942.446 594.576 M 731.500 610.355 C 724.709 613.526, 720.341 617.405, 716.004 624.115 C 706.701 638.509, 702.054 661.566, 702.020 693.506 C 701.972 737.643, 710.215 769.942, 724.369 781.076 C 731.342 786.561, 742.027 787.608, 750.500 783.637 C 757.026 780.579, 763.906 773.077, 767.942 764.621 C 777.127 745.375, 782.661 702.412, 780.066 670.500 C 778.732 654.110, 776.019 639.863, 772.339 629.936 C 769.264 621.640, 761.777 612.713, 755.505 609.863 C 749.458 607.116, 737.928 607.352, 731.500 610.355 M 976.005 628.744 C 973.182 629.740, 969.411 632.429, 965.866 635.974 C 950.927 650.913, 941 686.046, 941 723.974 C 941 755.043, 947.214 770.255, 960.518 771.755 C 967.317 772.521, 972.936 769.917, 979.289 763.054 C 994.477 746.650, 1005.936 708.622, 1005.973 674.500 C 1006.006 644.558, 997.090 626.549, 982.500 627.085 C 981.400 627.125, 978.477 627.872, 976.005 628.744 M 331.274 862.250 C 331.651 898.241, 331.976 905.520, 333.471 911.385 C 335.768 920.403, 340.137 930.906, 344.998 939.103 C 349.888 947.348, 361.362 959.730, 369.476 965.520 C 377.860 971.503, 390.752 977.524, 401 980.244 L 409.500 982.500 625 982.500 C 831.647 982.500, 840.788 982.424, 847.500 980.646 C 855.693 978.477, 870.801 971.597, 877.678 966.905 C 899.457 952.044, 914.369 926.001, 916.631 898.872 L 917.292 890.948 901.396 891.224 L 885.500 891.500 884.801 897.839 C 882.503 918.672, 869.561 936.430, 850.315 945.157 C 836.789 951.289, 849.374 950.964, 625.208 950.983 C 397.076 951.002, 412.028 951.441, 397 944.280 C 386.719 939.381, 375.768 928.461, 370.646 918 C 364.498 905.442, 364.037 901.288, 364.017 858.250 L 364 820 347.416 820 L 330.832 820 331.274 862.250 M 646.473 1019.211 C 646.190 1019.947, 646.081 1030.213, 646.229 1042.025 L 646.500 1063.500 650 1063.500 L 653.500 1063.500 653.500 1041 L 653.500 1018.500 650.243 1018.186 C 648.204 1017.990, 646.794 1018.373, 646.473 1019.211 M 751.667 1018.667 C 750.440 1019.894, 750.983 1024.741, 752.487 1025.989 C 753.336 1026.694, 755.046 1026.954, 756.472 1026.596 C 759.402 1025.861, 760.861 1021.742, 758.989 1019.487 C 757.741 1017.983, 752.894 1017.440, 751.667 1018.667 M 450.813 1024.250 C 450.339 1037.504, 450.309 1055.897, 450.753 1059.803 C 451.238 1064.063, 451.279 1064.103, 454.872 1063.803 L 458.500 1063.500 458.792 1055.750 L 459.084 1048 462.792 1048.023 C 466.313 1048.044, 466.766 1048.448, 471.756 1056.023 C 476.805 1063.688, 477.161 1064, 480.839 1064 C 482.944 1064, 484.945 1063.722, 485.284 1063.382 C 485.624 1063.043, 483.638 1059.409, 480.870 1055.308 L 475.839 1047.851 479.483 1044.676 C 483.720 1040.983, 485.367 1035.560, 484.039 1029.672 C 482.178 1021.420, 477.203 1019, 462.099 1019 L 451 1019 450.813 1024.250 M 459 1032.863 L 459 1040 465.500 1040 C 470.667 1040, 472.410 1039.590, 474 1038 C 476.479 1035.521, 476.564 1031.918, 474.211 1029.013 C 472.794 1027.262, 471.029 1026.692, 465.711 1026.265 L 459 1025.726 459 1032.863 M 508.218 1032.663 C 502.965 1035.252, 500.593 1039.478, 500.183 1046.978 C 499.880 1052.528, 500.178 1054.022, 502.183 1057 C 507.809 1065.356, 521.024 1066.438, 529.258 1059.217 C 530.899 1057.778, 530.906 1057.553, 529.353 1055.838 C 527.364 1053.639, 525.190 1053.542, 522.559 1055.532 C 519.652 1057.730, 512.424 1057.424, 510 1055 C 505.785 1050.785, 507.093 1050.085, 519.750 1049.782 L 531.500 1049.500 531.783 1046.500 C 532.198 1042.099, 528.164 1034.995, 524.016 1032.824 C 519.726 1030.578, 512.595 1030.506, 508.218 1032.663 M 554.092 1033.161 C 546.692 1038.240, 544.356 1045.408, 547.457 1053.525 C 550.791 1062.256, 560.420 1066.260, 568.250 1062.173 L 572 1060.216 572 1063.153 C 572 1070.466, 562.285 1073.635, 556.022 1068.365 C 553.338 1066.107, 552.540 1065.889, 550.445 1066.843 C 542.643 1070.398, 554.276 1078.957, 565.158 1077.668 C 571.704 1076.892, 575.637 1074.382, 578.021 1069.456 C 579.749 1065.887, 580 1063.265, 580 1048.791 C 580 1034.597, 579.773 1032.127, 578.418 1031.607 C 575.308 1030.413, 572.814 1030.995, 572.279 1033.040 C 571.774 1034.974, 571.648 1034.991, 569.857 1033.371 C 568.768 1032.385, 565.754 1031.484, 562.735 1031.242 C 558.450 1030.898, 556.881 1031.246, 554.092 1033.161 M 603.411 1032.832 C 598.797 1035.734, 596.181 1039.611, 595.422 1044.670 C 594.514 1050.730, 596.186 1055.819, 600.442 1059.943 C 603.363 1062.775, 604.855 1063.406, 609.546 1063.795 C 614.136 1064.176, 615.669 1063.882, 617.974 1062.177 C 620.789 1060.096, 620.792 1060.096, 621.320 1062.116 C 621.741 1063.725, 622.528 1064.073, 625.174 1063.819 L 628.500 1063.500 628.777 1048.076 C 629.072 1031.652, 628.908 1031.046, 624.156 1031.015 C 622.631 1031.005, 621.627 1031.712, 621.279 1033.040 C 620.774 1034.974, 620.648 1034.991, 618.857 1033.371 C 615.950 1030.739, 607.222 1030.435, 603.411 1032.832 M 677.922 1033.274 C 672.589 1036.867, 670 1041.485, 670.002 1047.398 C 670.005 1057.661, 676.022 1064, 685.762 1064 C 694.227 1064, 701.881 1058.972, 698.895 1055.373 C 697.433 1053.612, 695.017 1053.672, 692.559 1055.532 C 690.579 1057.029, 684.465 1057.500, 681.545 1056.379 C 680.654 1056.037, 679.256 1054.462, 678.437 1052.879 L 676.949 1050 689.474 1050 L 702 1050 702 1046.816 C 702 1045.064, 701.100 1041.772, 700 1039.500 C 696.148 1031.542, 685.110 1028.430, 677.922 1033.274 M 718.667 1031.667 C 718.300 1032.033, 718 1039.487, 718 1048.230 L 718 1064.127 721.250 1063.813 L 724.500 1063.500 725.032 1054 C 725.744 1041.266, 726.545 1039.979, 734.500 1038.775 C 736.060 1038.539, 736.500 1037.705, 736.500 1034.986 C 736.500 1032.114, 736.097 1031.443, 734.209 1031.175 C 732.950 1030.996, 730.404 1031.744, 728.553 1032.836 C 725.256 1034.782, 725.177 1034.783, 724.687 1032.911 C 724.197 1031.036, 720.136 1030.197, 718.667 1031.667 M 752 1047.500 L 752 1064.127 755.250 1063.813 L 758.500 1063.500 758.500 1047.500 L 758.500 1031.500 755.250 1031.187 L 752 1030.873 752 1047.500 M 783.304 1032.956 C 774.090 1038.574, 772.456 1051.278, 779.919 1059.279 C 783.272 1062.873, 784.288 1063.359, 789.327 1063.777 C 793.561 1064.128, 795.626 1063.820, 797.571 1062.545 C 799.988 1060.962, 800.250 1060.959, 801.382 1062.508 C 802.166 1063.580, 803.648 1064.052, 805.549 1063.836 L 808.500 1063.500 808.500 1047.500 L 808.500 1031.500 805.174 1031.181 C 802.513 1030.926, 801.742 1031.272, 801.312 1032.915 C 800.775 1034.967, 800.773 1034.967, 798.253 1032.984 C 794.905 1030.351, 787.600 1030.337, 783.304 1032.956 M 512.500 1038.114 C 510.279 1039.374, 508 1041.946, 508 1043.191 C 508 1043.636, 511.600 1044, 516 1044 C 520.400 1044, 524 1043.600, 524 1043.111 C 524 1042.622, 523.212 1041.273, 522.250 1040.114 C 520.133 1037.564, 515.238 1036.560, 512.500 1038.114 M 683.091 1038.090 C 680.749 1039.026, 678.096 1041.732, 678.032 1043.250 C 678.014 1043.662, 681.648 1044, 686.107 1044 C 693.089 1044, 694.130 1043.780, 693.607 1042.418 C 693.273 1041.548, 693 1040.660, 693 1040.444 C 693 1039.884, 687.258 1036.987, 686.300 1037.063 C 685.860 1037.098, 684.416 1037.560, 683.091 1038.090 M 557.048 1039.760 C 554.051 1042.187, 553.173 1049.088, 555.423 1052.524 C 557.757 1056.085, 561.468 1057.331, 565.641 1055.953 C 572.496 1053.691, 574.235 1046.081, 569.077 1040.923 C 565.644 1037.490, 560.469 1036.990, 557.048 1039.760 M 606.913 1039.282 C 602.969 1042.311, 601.939 1048.047, 604.463 1052.928 C 606.613 1057.086, 611.205 1058.230, 616.343 1055.890 C 621.525 1053.529, 622.663 1044.936, 618.364 1040.636 C 615.470 1037.743, 609.793 1037.071, 606.913 1039.282 M 786.672 1040.043 C 782.202 1043.560, 782.267 1052.201, 786.789 1055.637 C 788.947 1057.276, 794.996 1057.324, 797.087 1055.718 C 801.622 1052.236, 802.222 1045.606, 798.411 1041.077 C 795.285 1037.361, 790.606 1036.949, 786.672 1040.043" fill="url(#regaleriaGold)"/>
</svg>
